<svg viewBox="0 0 30 30" id="_03_-_Account" data-name="03 - Account" xmlns="http://www.w3.org/2000/svg">
  <path id="Path_217" data-name="Path 217" d="M16,1a8,8,0,1,0,8,8A8,8,0,0,0,16,1Zm0,2a6,6,0,1,1-6,6A6,6,0,0,1,16,3Z" transform="translate(-1 -1)" fill-rule="evenodd"/>
  <path id="Path_218" data-name="Path 218" d="M16,19.2c-5.657,0-10.558,1.175-13,2.82A3.865,3.865,0,0,0,1,25.1a3.865,3.865,0,0,0,2,3.08C5.442,29.825,10.343,31,16,31s10.558-1.175,13-2.82a3.865,3.865,0,0,0,2-3.08,3.865,3.865,0,0,0-2-3.08C26.558,20.375,21.657,19.2,16,19.2Zm0,2a26.973,26.973,0,0,1,10.867,1.909,5.8,5.8,0,0,1,1.694,1.132,1.06,1.06,0,0,1,0,1.718,5.8,5.8,0,0,1-1.694,1.132A26.973,26.973,0,0,1,16,29,26.973,26.973,0,0,1,5.133,27.091a5.8,5.8,0,0,1-1.694-1.132,1.06,1.06,0,0,1,0-1.718,5.8,5.8,0,0,1,1.694-1.132A26.973,26.973,0,0,1,16,21.2Z" transform="translate(-1 -1)" fill-rule="evenodd"/>
</svg>
