<?xml version="1.0" encoding="iso-8859-1"?>
<!-- Generator: Adobe Illustrator 19.0.0, SVG Export Plug-In . SVG Version: 6.00 Build 0)  -->
<svg version="1.1" id="Layer_1" xmlns="http://www.w3.org/2000/svg" xmlns:xlink="http://www.w3.org/1999/xlink" x="0px" y="0px"
	 viewBox="0 0 511.784 511.784" style="enable-background:new 0 0 511.784 511.784;" xml:space="preserve">
<g transform="translate(1 1)">
	<g>
		<g>
			<path d="M348.944,169.559h-25.6v-25.6c0-5.12-3.413-8.533-8.533-8.533H195.344c-5.12,0-8.533,3.413-8.533,8.533v25.6h-25.6
				c-5.12,0-8.533,3.413-8.533,8.533v169.813c0,2.56,0.853,5.12,3.413,6.827l93.867,62.293c1.707,0.853,3.413,1.707,5.12,1.707
				c1.707,0,3.413,0,5.12-1.707l93.867-62.293c1.707-1.707,3.413-4.267,3.413-6.827V178.092
				C357.477,172.972,354.064,169.559,348.944,169.559z M340.41,342.785l-85.333,57.173l-85.333-56.32V186.625h25.6
				c5.12,0,8.533-3.413,8.533-8.533v-25.6h102.4v25.6c0,5.12,3.413,8.533,8.533,8.533h25.6V342.785z"/>
			<path d="M481.931,132.513c0.969-1.191,1.583-2.709,1.771-4.464l11.678-29.441c1.155-1.306,1.867-3.033,2.011-5.069l12.833-32.353
				c0.853-2.56,0.853-5.12-0.853-7.68c-1.707-1.707-4.267-3.413-6.827-3.413h-128c-2.56,0-5.12,1.707-7.68,4.267l-31.289,46.933
				h-161.28l-31.858-47.787c-1.707-1.707-4.267-3.413-6.827-3.413h-128c-2.56,0-5.12,2.56-6.827,4.267s-2.56,5.12-0.853,7.68
				l12.942,32.447c0.219,1.319,0.694,2.484,1.382,3.464l12.297,30.83c0.22,1.201,0.655,2.27,1.27,3.185l12.433,31.17
				c0.22,1.057,0.6,2.015,1.135,2.844l19.127,47.953c11.093,27.307,30.72,48.64,54.613,61.44c1.035,0.69,2.212,1.378,3.413,2.011
				v88.442c0,3.413,1.707,5.973,3.413,6.827l128,85.333c1.707,0.853,3.413,1.707,5.12,1.707c1.707,0,3.413,0,5.12-1.707l128-85.333
				c1.707-1.707,3.413-4.267,3.413-6.827v-88.689c1.202-0.524,2.378-1.074,3.413-1.764c23.893-11.947,43.52-34.133,54.613-61.44
				l18.89-47.624c0.748-1.033,1.252-2.278,1.466-3.696L481.931,132.513z M76.73,207.959l-15.36-38.4h31.573
				c5.12,0,8.533-3.413,8.533-8.533s-3.413-8.533-8.533-8.533h-38.4l-6.827-17.067h28.16c5.12,0,8.533-3.413,8.533-8.533
				c0-5.12-3.413-8.533-8.533-8.533H40.89l-6.827-17.067h33.28c5.12,0,8.533-3.413,8.533-8.533s-3.413-8.533-8.533-8.533H27.237
				L20.41,67.159h110.933l23.727,36.438c-1.521,1.495-2.394,3.643-2.394,6.229v25.6h-25.6c-5.12,0-8.533,3.413-8.533,8.533v114.347
				C100.624,247.212,85.264,230.145,76.73,207.959z M374.544,361.559l-119.467,79.36l-119.467-79.36v-89.6V152.492h25.6
				c5.12,0,8.533-3.413,8.533-8.533v-25.6H340.41v25.6c0,5.12,3.413,8.533,8.533,8.533h25.6v119.467V361.559z M391.61,258.305
				V143.959c0-5.12-3.413-8.533-8.533-8.533h-25.6v-25.6c0-2.586-0.873-4.734-2.394-6.229l23.727-36.438h110.933l-6.827,17.067
				H442.81c-5.12,0-8.533,3.413-8.533,8.533s3.413,8.533,8.533,8.533h33.28l-6.827,17.067h-34.987c-5.12,0-8.533,3.413-8.533,8.533
				c0,5.12,3.413,8.533,8.533,8.533h28.16l-6.827,17.067h-38.4c-5.12,0-8.533,3.413-8.533,8.533s3.413,8.533,8.533,8.533h31.573
				l-15.36,38.4C424.89,230.145,410.384,247.212,391.61,258.305z"/>
		</g>
	</g>
</g>
<g>
</g>
<g>
</g>
<g>
</g>
<g>
</g>
<g>
</g>
<g>
</g>
<g>
</g>
<g>
</g>
<g>
</g>
<g>
</g>
<g>
</g>
<g>
</g>
<g>
</g>
<g>
</g>
<g>
</g>
</svg>
