<?xml version="1.0" encoding="iso-8859-1"?>
<!-- Generator: Adobe Illustrator 19.0.0, SVG Export Plug-In . SVG Version: 6.00 Build 0)  -->
<svg version="1.1" id="Capa_1" xmlns="http://www.w3.org/2000/svg" xmlns:xlink="http://www.w3.org/1999/xlink" x="0px" y="0px"
	 viewBox="0 0 55 55" style="enable-background:new 0 0 55 55;" xml:space="preserve">
<g>
	<g>
		<path d="M46.501,0H8.499C4.088,0,0.5,3.587,0.5,7.997v39.006C0.5,51.413,4.088,55,8.499,55h38.002
			c4.411,0,7.999-3.587,7.999-7.997V7.997C54.5,3.587,50.912,0,46.501,0z M52.5,47.003C52.5,50.31,49.809,53,46.501,53H8.499
			C5.191,53,2.5,50.31,2.5,47.003V7.997C2.5,4.69,5.191,2,8.499,2h38.002C49.809,2,52.5,4.69,52.5,7.997V47.003z"/>
		<path d="M28.207,8.293c-0.391-0.391-1.023-0.391-1.414,0l-16,16c-0.286,0.286-0.372,0.716-0.217,1.09
			C10.731,25.756,11.096,26,11.5,26h3v18c0,0.552,0.447,1,1,1h8h8h8c0.553,0,1-0.448,1-1V26h3c0.404,0,0.77-0.244,0.924-0.617
			c0.155-0.374,0.069-0.804-0.217-1.09L28.207,8.293z M24.5,43V32h6v11H24.5z M38.5,43h-6V31c0-0.552-0.447-1-1-1h-8
			c-0.553,0-1,0.448-1,1v12h-6V26h22V43z M39.5,24h-24h-1.586L27.5,10.414L41.086,24H39.5z"/>
	</g>
</g>
<g>
</g>
<g>
</g>
<g>
</g>
<g>
</g>
<g>
</g>
<g>
</g>
<g>
</g>
<g>
</g>
<g>
</g>
<g>
</g>
<g>
</g>
<g>
</g>
<g>
</g>
<g>
</g>
<g>
</g>
</svg>
