<svg version="1.1" id="Uploaded to svgrepo.com" xmlns="http://www.w3.org/2000/svg" xmlns:xlink="http://www.w3.org/1999/xlink" x="0px" y="0px"
	viewBox="0 0 32 32" style="enable-background:new 0 0 32 32;" xml:space="preserve">
<path class="feather_een" d="M24,7.5c0-0.677-0.452-1.243-1.069-1.43C22.476,2.645,19.55,0,16,0S9.524,2.645,9.069,6.07
	C8.452,6.257,8,6.823,8,7.5s0.452,1.243,1.069,1.43c0.211,1.583,0.945,3,2.031,4.065l1.63,16.304C12.883,30.832,14.174,32,15.715,32
	h0.57c1.541,0,2.832-1.168,2.985-2.701l1.63-16.304c1.086-1.065,1.82-2.482,2.031-4.065C23.548,8.743,24,8.177,24,7.5z M16,1
	c2.968,0,5.439,2.166,5.917,5H10.083C10.561,3.166,13.032,1,16,1z M18.275,29.199C18.172,30.226,17.317,31,16.285,31h-0.57
	c-1.032,0-1.887-0.774-1.99-1.801l-1.533-15.33C13.288,14.582,14.594,15,16,15s2.712-0.418,3.808-1.131L18.275,29.199z M16,14
	c-2.968,0-5.439-2.166-5.917-5h11.833C21.439,11.834,18.968,14,16,14z M22.5,8h-13C9.224,8,9,7.776,9,7.5S9.224,7,9.5,7h13
	C22.776,7,23,7.224,23,7.5S22.776,8,22.5,8z M16,16c0.552,0,1,0.448,1,1c0,0.552-0.448,1-1,1s-1-0.448-1-1
	C15,16.448,15.448,16,16,16z"/>
</svg>