<?xml version="1.0" encoding="iso-8859-1"?>
<svg version="1.1" id="Capa_1" xmlns="http://www.w3.org/2000/svg" xmlns:xlink="http://www.w3.org/1999/xlink" x="0px" y="0px"
	viewBox="0 0 60.006 60.006" style="enable-background:new 0 0 60.006 60.006;" xml:space="preserve">
<g>
	<g>
		<path d="M19.003,14.003c0.256,0,0.512-0.098,0.707-0.293l4-4c0.391-0.391,0.391-1.023,0-1.414c-0.391-0.391-1.023-0.391-1.414,0
			l-4,4c-0.391,0.391-0.391,1.023,0,1.414C18.491,13.905,18.747,14.003,19.003,14.003z"/>
		<path d="M20.296,15.296l-2,2c-0.391,0.391-0.391,1.023,0,1.414c0.195,0.195,0.451,0.293,0.707,0.293s0.512-0.098,0.707-0.293l2-2
			c0.391-0.391,0.391-1.023,0-1.414C21.319,14.905,20.687,14.905,20.296,15.296z"/>
		<path d="M22.293,13.29c-0.181,0.19-0.29,0.45-0.29,0.71c0,0.27,0.109,0.53,0.29,0.71c0.189,0.19,0.45,0.29,0.71,0.29
			s0.52-0.1,0.71-0.29c0.18-0.19,0.29-0.44,0.29-0.71c0-0.26-0.11-0.52-0.29-0.71C23.333,12.92,22.673,12.92,22.293,13.29z"/>
		<path d="M27.296,8.296l-3,3c-0.391,0.391-0.391,1.023,0,1.414c0.195,0.195,0.451,0.293,0.707,0.293s0.512-0.098,0.707-0.293l3-3
			c0.391-0.391,0.391-1.023,0-1.414C28.319,7.905,27.687,7.905,27.296,8.296z"/>
		<path d="M45.997,0H14.009c-2.209,0-4.006,1.797-4.006,4.006V56c0,2.209,1.797,4.006,4.006,4.006h31.988
			c2.209,0,4.006-1.797,4.006-4.006V4.006C50.003,1.797,48.206,0,45.997,0z M48.003,56c0,1.106-0.899,2.006-2.006,2.006H14.009
			c-1.106,0-2.006-0.9-2.006-2.006V4.006C12.003,2.9,12.903,2,14.009,2h31.988c1.106,0,2.006,0.9,2.006,2.006
			C48.003,4.006,48.003,56,48.003,56z"/>
		<path d="M15.003,26.006h30v-21h-30C15.003,5.006,15.003,26.006,15.003,26.006z M17.003,7.006h26v17h-26
			C17.003,24.006,17.003,7.006,17.003,7.006z"/>
		<path d="M39.901,32.105c-0.01-0.01-0.024-0.013-0.034-0.023c-2.533-2.517-6.019-4.077-9.864-4.077s-7.332,1.559-9.864,4.077
			c-0.011,0.01-0.025,0.013-0.035,0.023c-0.01,0.01-0.014,0.024-0.023,0.035c-2.518,2.533-4.077,6.019-4.077,9.864
			c0,3.829,1.548,7.302,4.048,9.832c0.021,0.025,0.029,0.056,0.052,0.079c0.025,0.025,0.057,0.034,0.083,0.055
			c2.529,2.491,5.995,4.034,9.816,4.034c3.827,0,7.298-1.547,9.828-4.044c0.022-0.018,0.049-0.026,0.07-0.046
			c0.019-0.019,0.026-0.045,0.043-0.065c2.507-2.531,4.059-6.009,4.059-9.844c0-3.847-1.561-7.335-4.081-9.868
			C39.913,32.128,39.91,32.115,39.901,32.105z M30.003,30.006c2.948,0,5.648,1.073,7.739,2.844l-2.13,2.13
			c-1.54-1.232-3.488-1.974-5.609-1.974c-2.122,0-4.071,0.742-5.611,1.975l-2.13-2.13C24.354,31.08,27.054,30.006,30.003,30.006z
			 M37.003,42.006c0,3.86-3.141,7-7,7s-7-3.14-7-7s3.141-7,7-7S37.003,38.146,37.003,42.006z M18.003,42.006
			c0-2.949,1.074-5.649,2.845-7.741l2.13,2.13c-1.233,1.54-1.975,3.489-1.975,5.611c0,2.125,0.744,4.076,1.98,5.617l-2.129,2.129
			C19.079,47.661,18.003,44.958,18.003,42.006z M30.003,54.006c-2.946,0-5.644-1.072-7.735-2.84l2.13-2.13
			c1.539,1.23,3.486,1.97,5.604,1.97c2.119,0,4.065-0.74,5.604-1.97l2.13,2.13C35.647,52.935,32.949,54.006,30.003,54.006z
			 M39.152,49.753l-2.129-2.129c1.236-1.541,1.98-3.493,1.98-5.617c0-2.122-0.743-4.072-1.976-5.613l2.129-2.13
			c1.772,2.092,2.847,4.792,2.847,7.742C42.003,44.958,40.927,47.661,39.152,49.753z"/>
		<circle cx="30.003" cy="42.006" r="3"/>
	</g>
</g>
<g>
</g>
<g>
</g>
<g>
</g>
<g>
</g>
<g>
</g>
<g>
</g>
<g>
</g>
<g>
</g>
<g>
</g>
<g>
</g>
<g>
</g>
<g>
</g>
<g>
</g>
<g>
</g>
<g>
</g>
</svg>
